<svg xmlns="http://www.w3.org/2000/svg" width="1600" height="2400" viewBox="0 0 1600 2400">
  <defs>
    <linearGradient id="paper" x1="0" y1="0" x2="1" y2="1">
      <stop offset="0" stop-color="#FFF8E9"/>
      <stop offset="0.55" stop-color="#FFFDF7"/>
      <stop offset="1" stop-color="#F0E0C5"/>
    </linearGradient>
    <radialGradient id="warm" cx="84%" cy="18%" r="46%">
      <stop offset="0" stop-color="#111B29" stop-opacity="0.10"/>
      <stop offset="1" stop-color="#FFFDF7" stop-opacity="0"/>
    </radialGradient>
    <pattern id="formGrid" width="108" height="108" patternUnits="userSpaceOnUse">
      <path d="M108 0H0V108" fill="none" stroke="#16202E" stroke-width="1.5" opacity="0.08"/>
    </pattern>
  </defs>
  <rect width="1600" height="2400" fill="url(#paper)"/>
  <rect width="1600" height="2400" fill="url(#warm)"/>
  <rect x="0" y="0" width="132" height="2400" fill="#A33A32"/>
  <rect x="132" y="0" width="18" height="2400" fill="#B08A54"/>
  <rect x="120" y="120" width="1360" height="2160" fill="none" stroke="#16202E" stroke-width="4" opacity="0.22"/>
  <rect x="930" y="330" width="560" height="1060" rx="34" fill="url(#formGrid)" stroke="#16202E" stroke-width="4" opacity="0.68" transform="rotate(-2 1210 860)"/>
  <line x1="1010" y1="520" x2="1440" y2="520" stroke="#16202E" stroke-width="4" opacity="0.16"/>
  <line x1="1010" y1="650" x2="1440" y2="650" stroke="#16202E" stroke-width="4" opacity="0.16"/>
  <line x1="1010" y1="780" x2="1440" y2="780" stroke="#16202E" stroke-width="4" opacity="0.16"/>
  <g transform="rotate(-9 1220 410)">
    <rect x="1045" y="350" width="350" height="108" rx="16" fill="none" stroke="#A33A32" stroke-width="8"/>
    <text x="1080" y="423" fill="#A33A32" font-family="Microsoft YaHei, DengXian, sans-serif" font-size="54" font-weight="900" letter-spacing="8">风险识别</text>
  </g>
  <text x="235" y="290" fill="#4B5A6A" font-family="Microsoft YaHei, DengXian, sans-serif" font-size="34" font-weight="900" letter-spacing="10">XINJIANG VOLUNTEER RISK HANDBOOK</text>
  <text x="235" y="575" fill="#111B29" font-family="Microsoft YaHei, DengXian, sans-serif" font-size="132" font-weight="900">别把孩子的</text>
  <text x="235" y="745" fill="#111B29" font-family="Microsoft YaHei, DengXian, sans-serif" font-size="132" font-weight="900">分数浪费在</text>
  <text x="235" y="915" fill="#111B29" font-family="Microsoft YaHei, DengXian, sans-serif" font-size="132" font-weight="900">志愿表里</text>
  <rect x="235" y="1005" width="860" height="10" fill="#111B29"/>
  <text x="235" y="1125" fill="#2C3440" font-family="SimSun, Source Han Serif SC, serif" font-size="50" font-weight="700">不是推荐学校，是先帮家长排掉不可逆错误。</text>
  <g font-family="Microsoft YaHei, DengXian, sans-serif" font-size="34" font-weight="800" fill="#1F2A38">
    <rect x="235" y="1250" width="205" height="72" rx="36" fill="#FFFDF7" stroke="#A9B2BE" stroke-width="3"/>
    <rect x="470" y="1250" width="205" height="72" rx="36" fill="#FFFDF7" stroke="#A9B2BE" stroke-width="3"/>
    <rect x="705" y="1250" width="205" height="72" rx="36" fill="#FFFDF7" stroke="#A9B2BE" stroke-width="3"/>
    <rect x="940" y="1250" width="205" height="72" rx="36" fill="#FFFDF7" stroke="#A9B2BE" stroke-width="3"/>
    <text x="287" y="1298">位次核验</text>
    <text x="522" y="1298">章程红线</text>
    <text x="757" y="1298">专业调剂</text>
    <text x="992" y="1298">专项批次</text>
  </g>
  <path d="M235 1705 L455 1705 L455 1515 L675 1515 L675 1705 L895 1705" fill="none" stroke="#A33A32" stroke-width="34" stroke-linecap="round" stroke-linejoin="round" opacity="0.86"/>
  <circle cx="235" cy="1705" r="22" fill="#111B29"/>
  <circle cx="895" cy="1705" r="22" fill="#111B29"/>
  <line x1="235" y1="2050" x2="1395" y2="2050" stroke="#16202E" stroke-width="4" opacity="0.16"/>
  <text x="235" y="2130" fill="#16202E" font-family="Microsoft YaHei, DengXian, sans-serif" font-size="48" font-weight="700">黄昊 Rex / 问路</text>
  <text x="235" y="2208" fill="#586371" font-family="Microsoft YaHei, DengXian, sans-serif" font-size="34">新疆家长高考志愿风险识别手册 · MVP 初稿 · 2026-06-25</text>
</svg>